inDegrees=no
num_controls=7
num_derivatives=13
num_iterations=111
num_multipliers=7
num_parameters=0
num_slacks=7
num_states=26
objective=0.497123
objective_accelerations=0.032341
objective_balance=0.003264
objective_effort=0.035045
objective_height=0.420980
objective_ligament=0.005493
solver_duration=1263.769701
status=Solve_Succeeded
success=true
DataType=double
version=3
OpenSimVersion=4.5
endheader
time	/jointset/ground_pelvis/pelvis_tilt/value	/jointset/ground_pelvis/pelvis_tx/value	/jointset/ground_pelvis/pelvis_ty/value	/jointset/hip_r/hip_flexion_r/value	/jointset/hip_r/hip_adduction_r/value	/jointset/hip_r/hip_rotation_r/value	/jointset/back/lumbar_extension/value	/jointset/patellofemoral_r/patellar_flexion_r/value	/jointset/knee_r/knee_flexion_r/value	/jointset/knee_r/knee_adduction_r/value	/jointset/knee_r/knee_rotation_r/value	/jointset/ankle_r/ankle_angle_r/value	/jointset/subtalar_r/subtalar_angle_r/value	/jointset/ground_pelvis/pelvis_tilt/speed	/jointset/ground_pelvis/pelvis_tx/speed	/jointset/ground_pelvis/pelvis_ty/speed	/jointset/hip_r/hip_flexion_r/speed	/jointset/hip_r/hip_adduction_r/speed	/jointset/hip_r/hip_rotation_r/speed	/jointset/back/lumbar_extension/speed	/jointset/patellofemoral_r/patellar_flexion_r/speed	/jointset/knee_r/knee_flexion_r/speed	/jointset/knee_r/knee_adduction_r/speed	/jointset/knee_r/knee_rotation_r/speed	/jointset/ankle_r/ankle_angle_r/speed	/jointset/subtalar_r/subtalar_angle_r/speed	/forceset/tau_hip_flexion_r	/forceset/tau_hip_adduction_r	/forceset/tau_hip_rotation_r	/forceset/tau_knee_flexion_r	/forceset/tau_ankle_angle_r	/forceset/tau_subtalar_angle_r	/forceset/tau_lumbar_extension	lambda_cid13_p0	lambda_cid14_p0	lambda_cid14_p1	lambda_cid14_p2	lambda_cid14_p3	lambda_cid14_p4	lambda_cid14_p5	/jointset/ground_pelvis/pelvis_tilt/accel	/jointset/ground_pelvis/pelvis_tx/accel	/jointset/ground_pelvis/pelvis_ty/accel	/jointset/hip_r/hip_flexion_r/accel	/jointset/hip_r/hip_adduction_r/accel	/jointset/hip_r/hip_rotation_r/accel	/jointset/back/lumbar_extension/accel	/jointset/patellofemoral_r/patellar_flexion_r/accel	/jointset/knee_r/knee_flexion_r/accel	/jointset/knee_r/knee_adduction_r/accel	/jointset/knee_r/knee_rotation_r/accel	/jointset/ankle_r/ankle_angle_r/accel	/jointset/subtalar_r/subtalar_angle_r/accel	gamma_cid13_p0	gamma_cid14_p0	gamma_cid14_p1	gamma_cid14_p2	gamma_cid14_p3	gamma_cid14_p4	gamma_cid14_p5
1	-0.18289056934992	0.03837293535141612	0.7498066517104008	1.098145920471873	-0.2365977877862514	-0.07063067897507187	-0.4363088259321485	1.157754485517344	1.157754485517329	-0.0282831473305117	0.1744471923609972	0.4363193257619308	0.1033112676186301	0.002435408837120171	0.004861016988309676	0.0131585081451196	-0.04014123865773268	0.002854014132449837	-0.01459857619248875	0.003976848338897917	-0.04598195327315808	-0.04598195327315876	-0.005421484576360953	-0.0002017041942703061	-0.008942678807025138	0.001750288088877287	-0.1999099229973585	0.02945457350208953	0.0134469640037569	-0.4445296747111798	-0.04212887799972455	0.004805754866575366	0.2453802501919316	-3.10559924553754	-60.84690375507832	-8.911814773869537	2.274944858086639	20.42898999231193	-771.9194723504123	55.1661050176016	0.8402527439418511	0.008148108283199741	1.23255572015678	-3.783049735508333	0.1172894589679238	-0.5800002454277237	0.4360847168593436	-4.350322799206033	-4.350322799206052	0.5011666111176437	0.0006857598908519037	-1.597270346535651	-0.4062399711979508	1.131681167608703e-09	-1.539074909540518e-09	2.449250584940053e-09	8.630350798681151e-09	5.964069082608428e-09	-2.336762269224487e-09	1.52675584447857e-09
1.01	-0.1828243611724053	0.03842213647954933	0.7499998299495126	1.097555343484405	-0.2365634723677425	-0.07080502318590164	-0.4362461847714263	1.157077292217105	1.157077292217099	-0.0283116170198145	0.1744450590852796	0.436150312664067	0.1033083969385202	0.01084683409582177	0.004999269121057147	0.0254859631774426	-0.07805658710629054	0.0040092131721968	-0.02026395681564004	0.008594592065249511	-0.08947361299242551	-0.08947361299242526	-0.0002627552816026864	-0.0002320259612799892	-0.02483438040635282	-0.00231393352948565	-0.200550424914334	0.02956593148728041	0.01344536507482497	-0.4440411635723935	-0.04243819656549357	0.004821667566951083	0.246038978523576	-3.132709965915039	-60.95368747935272	-8.918324059786197	2.269955136054038	20.27119422426759	-772.2423061468058	55.11354346675432	0.8476794349186009	0.01967438072591798	1.234162176612204	-3.808140986320199	0.1146598865919503	-0.5588589466667462	0.4811004394772813	-4.351123995280205	-4.351123995280051	0.5246810209270021	-0.00594885079036386	-1.581286620578476	-0.4049370970452393	2.50770966452947e-09	-1.8127622242576e-09	2.376826648605101e-09	1.772471093573723e-08	7.695248597010828e-09	-8.652145481904073e-09	1.163355798309477e-09
1.02	-0.1826728203386868	0.03847332225200108	0.7503165470953161	1.096583140295094	-0.2365176000068133	-0.07103583159814446	-0.4361360699256496	1.155964675032275	1.155964675032278	-0.02828820842971532	0.1744424110507333	0.4358231492394203	0.1032651992742487	0.01950194007789503	0.005257945852019943	0.03786628948345171	-0.1164664790264761	0.005165402616498476	-0.02589141647510793	0.01347158534976974	-0.1330667301914175	-0.1330667301914161	0.004954171304038969	-0.0003046559600273111	-0.04057274416356653	-0.006315108743439919	-0.2011909268313095	0.02967728947246856	0.01344376614589313	-0.4435526524336073	-0.04274751513126258	0.004837580267326773	0.2466977068552204	-3.177647854882951	-61.07071853454926	-8.92152856547688	2.258614260275408	20.13484908952048	-772.7289818464435	55.08604046294575	0.8889888886161814	0.03223302792622652	1.243129974893997	-3.881958429833869	0.1174875398788667	-0.5724160526910439	0.4879346284930697	-4.370614295150933	-4.370614295150912	0.5128060692943216	-0.007775886456498163	-1.566602778112855	-0.3936306903162523	3.265468861679602e-09	-9.052150061603243e-10	7.763804633316563e-09	2.542841221882072e-08	6.957125366918603e-09	-1.044552326199583e-08	6.448057296686923e-09
1.03	-0.1824339859309333	0.03852768185490583	0.7507572280443513	1.095224981551636	-0.2364601902891678	-0.07132273648651048	-0.4359754104563797	1.154415684211878	1.154415684211889	-0.02821231014682199	0.1744388917357864	0.4353392822178852	0.1031822336477866	0.02825953481496589	0.005632779494735255	0.05026857800484812	-0.1551882750674163	0.006313843634622109	-0.03148432222239814	0.0187502494184955	-0.17674213063486	-0.1767421306348584	0.01023810287859874	-0.0003999466109420985	-0.05618338424344586	-0.01027437788251711	-0.201545094694661	0.02973672263142754	0.01345371520604219	-0.4429390138872943	-0.04277622841981262	0.004795040655290524	0.2471409793890932	-3.24080000516261	-61.08123458090327	-8.934107948119845	2.251782402104351	19.95279817560402	-772.8768683790773	55.01567184991605	0.8683350299693673	0.04293048144898203	1.238577493811225	-3.870740038248628	0.113123788809437	-0.5519391978172759	0.5613234332049519	-4.36760823891808	-4.367608238918045	0.538080495710989	-0.01050937213508021	-1.555704102763756	-0.3965230878347422	4.016919188423907e-09	1.438562553710516e-11	1.320649080089588e-08	3.311792310543511e-08	6.193805170045808e-09	-1.219275812951013e-08	1.179039248429447e-08
